# xmcd
#
# Track frame offsets: 
#        150
#        9460
#        21842
#        36805
#        49924
#        63710
#        80440
#        91719
#        103447
#        117486
#        134640
#        148034
#        166027
#        184892
#        199804
#        211901
#
# Disc length: 2973 seconds
#
# Revision: 0
# Processed by: cddbd v1.5.2PL0 Copyright (c) Steve Scherf et al.
# Submitted via: ExactAudioCopy v0.95a3
#
DISCID=e70b9b10
DTITLE=Keel Brothers - Keel Brothers, Volume 2
DYEAR=1900
DGENRE=Old-Time Guitar
TTITLE0=Cripple Creek
TTITLE1=Wash My Face
TTITLE2=Little Birdie
TTITLE3=Gallop Off To Georgia
TTITLE4=Whole World Round
TTITLE5=Don Quixote
TTITLE6=Remington Ride
TTITLE7=Frauline
TTITLE8=Don't Go Out Tonight
TTITLE9=Liberty
TTITLE10=Stone Walls and Steel Bars
TTITLE11=Two Little Boys
TTITLE12=Kentucky Waltz
TTITLE13=Poor Old Joe
TTITLE14=Whispering Rain
TTITLE15=Kingdom Cometh
EXTD=
EXTT0=
EXTT1=
EXTT2=
EXTT3=
EXTT4=
EXTT5=
EXTT6=
EXTT7=
EXTT8=
EXTT9=
EXTT10=
EXTT11=
EXTT12=
EXTT13=
EXTT14=
EXTT15=
PLAYORDER=
